# xmcd CD database file
#
# Track frame offsets:
#	150
#	16983
#	39619
#	59255
#	77661
#	99413
#	123523
#	147154
#	170106
#	195701
#
# Disc length: 2846 seconds
#
# Revision: 0
# Processed by: cddbd v1.5.2PL0 Copyright (c) Steve Scherf et al.
# Submitted via: CDex 1.51
#
DISCID=850b1c0a
DTITLE=Keiko Lee - Live at "BASIE" with Hank Jones
DYEAR=2006
DGENRE=Jazz
TTITLE0=Oh Look At Me Now
TTITLE1=Willow Weep For Me
TTITLE2=Someone To Watch Over Me
TTITLE3=My Romance
TTITLE4='S Wonderful
TTITLE5=Come Rain Or Come Shine
TTITLE6='Round Midnight
TTITLE7=But Beautiful
TTITLE8=Lover Come Thought Of You
TTITLE9=The Very Thought Of You
EXTD=YEAR: 2006
EXTT0=
EXTT1=
EXTT2=
EXTT3=
EXTT4=
EXTT5=
EXTT6=
EXTT7=
EXTT8=
EXTT9=
PLAYORDER=
